<?xml version="1.0" encoding="UTF-8" standalone="no"?>
<!DOCTYPE svg PUBLIC "-//W3C//DTD SVG 1.1//EN" "http://www.w3.org/Graphics/SVG/1.1/DTD/svg11.dtd">
<svg width="100%" height="100%" viewBox="0 0 458 133" version="1.1" xmlns="http://www.w3.org/2000/svg" xmlns:xlink="http://www.w3.org/1999/xlink" xml:space="preserve" xmlns:serif="http://www.serif.com/" style="fill-rule:evenodd;clip-rule:evenodd;stroke-linejoin:round;stroke-miterlimit:2;">
    <g id="图层1">
        <g transform="matrix(0.645782,0,0,0.645105,303.951,59.744)">
            <path d="M0,-61.974L-15.512,-61.974C-15.901,-61.974 -16.22,-61.656 -16.22,-61.266L-16.22,-0.707C-16.22,-0.319 -15.901,0 -15.512,0L0,0C0.389,0 0.708,-0.319 0.708,-0.707L0.708,-61.266C0.708,-61.656 0.389,-61.974 0,-61.974" style="fill:white;fill-rule:nonzero;"/>
        </g>
        <g transform="matrix(0.645782,0,0,0.645105,56.674,33.5888)">
            <path d="M0,19.114C0,24.051 -4.04,28.092 -8.978,28.092L-56.457,28.092C-56.567,28.088 -56.675,28.07 -56.779,28.044C-56.849,28.028 -56.912,28.007 -56.973,27.983L-56.986,27.977C-57.262,27.868 -57.452,27.693 -57.579,27.499C-57.597,27.472 -57.615,27.446 -57.632,27.419C-57.647,27.391 -57.662,27.366 -57.675,27.339C-57.768,27.167 -57.824,26.974 -57.84,26.77L-57.84,-7.513C-57.84,-7.519 -57.838,-7.523 -57.838,-7.528C-57.838,-7.534 -57.84,-7.54 -57.84,-7.547C-57.84,-7.671 -57.819,-7.789 -57.79,-7.905C-57.773,-7.975 -57.752,-8.038 -57.729,-8.099C-57.728,-8.104 -57.725,-8.108 -57.723,-8.113C-57.613,-8.389 -57.439,-8.578 -57.245,-8.705C-57.218,-8.724 -57.192,-8.741 -57.165,-8.758C-57.138,-8.774 -57.112,-8.788 -57.084,-8.802C-56.906,-8.899 -56.706,-8.957 -56.492,-8.97C-56.471,-8.973 -56.461,-8.974 -56.448,-8.975C-56.439,-8.975 -56.432,-8.976 -56.423,-8.977L-8.978,-8.977C-4.04,-8.977 0,-4.938 0,0.001L0,19.114ZM-0.798,-21.43L-74.06,-21.43C-74.449,-21.43 -74.768,-21.112 -74.768,-20.722L-74.768,39.837C-74.768,40.225 -74.449,40.544 -74.06,40.544L-0.798,40.544C9.078,40.544 17.157,32.465 17.157,22.589L17.157,-3.475C17.157,-13.35 9.078,-21.43 -0.798,-21.43" style="fill:white;fill-rule:nonzero;"/>
        </g>
        <g transform="matrix(0.645782,0,0,0.645105,279.888,59.744)">
            <path d="M0,-61.974L-15.513,-61.974C-15.902,-61.974 -16.22,-61.656 -16.22,-61.266L-16.22,-37.777C-16.221,-37.772 -16.221,-37.77 -16.222,-37.764C-16.234,-37.549 -16.294,-37.35 -16.39,-37.171C-16.403,-37.144 -16.418,-37.119 -16.434,-37.091C-16.451,-37.064 -16.468,-37.037 -16.487,-37.011C-16.614,-36.817 -16.803,-36.642 -17.08,-36.533L-17.093,-36.527C-17.154,-36.503 -17.217,-36.483 -17.287,-36.466C-17.392,-36.439 -17.501,-36.421 -17.614,-36.418L-72.893,-36.418C-72.896,-36.419 -72.899,-36.419 -72.903,-36.419C-72.907,-36.419 -72.911,-36.419 -72.916,-36.418L-72.93,-36.418C-73.051,-36.419 -73.167,-36.439 -73.28,-36.468C-73.35,-36.484 -73.413,-36.505 -73.474,-36.529L-73.487,-36.535C-73.764,-36.644 -73.954,-36.819 -74.08,-37.013C-74.099,-37.039 -74.116,-37.066 -74.133,-37.093C-74.148,-37.12 -74.164,-37.146 -74.177,-37.173C-74.272,-37.349 -74.33,-37.546 -74.344,-37.757L-74.344,-61.266C-74.344,-61.656 -74.663,-61.974 -75.052,-61.974L-90.564,-61.974C-90.953,-61.974 -91.271,-61.656 -91.271,-61.266L-91.271,-0.707C-91.271,-0.319 -90.953,0 -90.564,0L-75.052,0C-74.663,0 -74.344,-0.319 -74.344,-0.707L-74.344,-22.515L-74.342,-22.515C-74.342,-22.521 -74.341,-22.524 -74.341,-22.53C-74.341,-22.536 -74.342,-22.542 -74.342,-22.549C-74.342,-22.673 -74.322,-22.791 -74.292,-22.907C-74.276,-22.977 -74.255,-23.039 -74.231,-23.101C-74.23,-23.105 -74.228,-23.11 -74.226,-23.114C-74.116,-23.39 -73.941,-23.58 -73.747,-23.706C-73.721,-23.725 -73.694,-23.743 -73.667,-23.76C-73.64,-23.775 -73.614,-23.79 -73.587,-23.803C-73.419,-23.894 -73.232,-23.949 -73.032,-23.965L-17.529,-23.965C-17.33,-23.949 -17.143,-23.894 -16.975,-23.803C-16.947,-23.79 -16.921,-23.775 -16.895,-23.76C-16.867,-23.743 -16.841,-23.725 -16.814,-23.706C-16.621,-23.58 -16.446,-23.39 -16.336,-23.114C-16.334,-23.11 -16.332,-23.105 -16.33,-23.101C-16.307,-23.039 -16.286,-22.977 -16.27,-22.907C-16.241,-22.795 -16.222,-22.681 -16.22,-22.562L-16.22,-22.538C-16.221,-22.536 -16.221,-22.533 -16.221,-22.53C-16.221,-22.527 -16.221,-22.525 -16.22,-22.523L-16.22,-0.707C-16.22,-0.319 -15.902,0 -15.513,0L0,0C0.389,0 0.708,-0.319 0.708,-0.707L0.708,-61.266C0.708,-61.656 0.389,-61.974 0,-61.974" style="fill:white;fill-rule:nonzero;"/>
        </g>
        <g transform="matrix(0.645782,0,0,0.645105,399.839,51.711)">
            <path d="M0,-37.103L73.446,-37.103C73.835,-37.103 74.154,-37.421 74.154,-37.811L74.154,-48.848C74.154,-49.237 73.835,-49.555 73.446,-49.555L-1.088,-49.555C-1.146,-49.555 -1.199,-49.536 -1.253,-49.522L-11.84,-49.522C-15.132,-49.522 -17.826,-46.829 -17.826,-43.537L-17.826,6.466C-17.826,9.758 -15.132,12.452 -11.84,12.452L68.168,12.452C71.46,12.452 74.154,9.758 74.154,6.466L74.154,-23.258C74.154,-23.648 73.835,-23.966 73.446,-23.966L12.887,-23.966C12.498,-23.966 12.18,-23.648 12.18,-23.258L12.18,-12.221C12.18,-11.832 12.498,-11.513 12.887,-11.513L55.822,-11.513C55.826,-11.513 55.83,-11.512 55.834,-11.512C55.847,-11.511 55.857,-11.51 55.878,-11.508C56.092,-11.496 56.292,-11.436 56.471,-11.339C56.498,-11.326 56.524,-11.311 56.551,-11.295C56.578,-11.279 56.605,-11.261 56.631,-11.243C56.825,-11.116 57,-10.926 57.109,-10.65C57.112,-10.645 57.114,-10.641 57.115,-10.636C57.139,-10.576 57.16,-10.513 57.176,-10.443C57.205,-10.33 57.225,-10.213 57.226,-10.091L57.226,-10.08C57.225,-10.075 57.225,-10.07 57.225,-10.066C57.225,-10.062 57.225,-10.058 57.226,-10.055L57.226,-0.898C57.226,-0.405 56.822,0 56.328,0L0,0C-0.494,0 -0.898,-0.405 -0.898,-0.898L-0.898,-36.206C-0.898,-36.699 -0.494,-37.103 0,-37.103" style="fill:white;fill-rule:nonzero;"/>
        </g>
        <g transform="matrix(0.645782,0,0,0.645105,208.901,59.744)">
            <path d="M0,-61.974L-85.096,-61.974C-88.388,-61.974 -91.081,-59.281 -91.081,-55.989L-91.081,-30.548C-91.081,-27.256 -88.388,-24.563 -85.096,-24.563L-59.214,-24.563L-59.214,-24.552L-16.928,-24.552C-16.434,-24.552 -16.03,-24.149 -16.03,-23.655L-16.03,-12.748C-16.03,-12.254 -16.434,-11.85 -16.928,-11.85L-75.274,-11.85L-75.274,-11.849L-90.184,-11.849C-90.677,-11.849 -91.081,-11.445 -91.081,-10.952L-91.081,-0.898C-91.081,-0.404 -90.677,0 -90.184,0L-5.087,0C-1.796,0 0.898,-2.694 0.898,-5.986L0.898,-30.719C0.898,-34.011 -1.796,-37.233 -5.087,-37.233L-59.214,-37.233L-59.214,-37.222L-73.256,-37.222C-73.75,-37.222 -74.153,-37.626 -74.153,-38.12L-74.153,-49.027C-74.153,-49.52 -73.75,-49.924 -73.256,-49.924L-12.874,-49.924L-12.874,-49.965L0,-49.965C0.494,-49.965 0.898,-50.37 0.898,-50.863L0.898,-61.077C0.898,-61.57 0.494,-61.974 0,-61.974" style="fill:white;fill-rule:nonzero;"/>
        </g>
        <g transform="matrix(0.645782,0,0,0.645105,376.406,59.744)">
            <path d="M0,-61.974L-15.512,-61.974C-15.901,-61.974 -16.22,-61.656 -16.22,-61.266L-16.22,-15.345C-16.625,-14.203 -18.114,-14.458 -19.604,-15.683L-40.156,-35.12L-40.156,-35.115L-62.181,-55.989C-69.035,-61.974 -70.292,-61.974 -74.784,-61.974L-90.563,-61.974C-90.953,-61.974 -91.271,-61.656 -91.271,-61.266L-91.271,-0.707C-91.271,-0.319 -90.953,0 -90.563,0L-75.051,0C-74.662,0 -74.344,-0.319 -74.344,-0.707L-74.344,-45.601C-73.945,-46.863 -72.294,-46.521 -70.708,-45.11L-40.684,-16.637L-40.684,-16.633L-40.238,-16.214L-36.155,-12.342L-36.154,-12.377L-29.351,-5.986C-22.713,0 -20.712,0 -16.22,0L0,0C0.389,0 0.708,-0.319 0.708,-0.707L0.708,-61.266C0.708,-61.656 0.389,-61.974 0,-61.974" style="fill:white;fill-rule:nonzero;"/>
        </g>
        <g transform="matrix(0.645782,0,0,0.645105,90.7305,51.891)">
            <path d="M0,-37.628L56.328,-37.628C56.822,-37.628 57.226,-37.224 57.226,-36.731L57.226,-23.491C57.226,-23.485 57.225,-23.482 57.225,-23.475C57.212,-23.261 57.152,-23.062 57.056,-22.883C57.042,-22.856 57.027,-22.829 57.012,-22.803C56.995,-22.775 56.978,-22.748 56.959,-22.723C56.833,-22.528 56.643,-22.354 56.366,-22.244C56.362,-22.242 56.357,-22.239 56.353,-22.238C56.292,-22.215 56.229,-22.193 56.159,-22.178C56.071,-22.155 55.979,-22.141 55.886,-22.134L0.463,-22.134C0.361,-22.139 0.262,-22.154 0.166,-22.18C0.096,-22.195 0.033,-22.216 -0.028,-22.239C-0.032,-22.241 -0.037,-22.243 -0.041,-22.246C-0.317,-22.356 -0.507,-22.53 -0.634,-22.725C-0.652,-22.75 -0.67,-22.776 -0.687,-22.804C-0.703,-22.831 -0.717,-22.857 -0.73,-22.885C-0.826,-23.061 -0.884,-23.258 -0.898,-23.468L-0.898,-36.731C-0.898,-37.224 -0.494,-37.628 0,-37.628M65.176,-49.801L-8.848,-49.801C-13.786,-49.801 -17.825,-45.761 -17.825,-40.823L-17.825,11.275C-17.825,11.769 -17.421,12.173 -16.928,12.173L-1.795,12.173C-1.302,12.173 -0.898,11.769 -0.898,11.275L-0.898,-8.35C-0.891,-8.441 -0.876,-8.531 -0.854,-8.618C-0.838,-8.689 -0.817,-8.751 -0.794,-8.812C-0.792,-8.816 -0.79,-8.821 -0.788,-8.825C-0.678,-9.102 -0.504,-9.291 -0.31,-9.418C-0.283,-9.437 -0.257,-9.454 -0.229,-9.471C-0.203,-9.486 -0.177,-9.501 -0.149,-9.515C0.025,-9.609 0.221,-9.667 0.43,-9.681L55.896,-9.681C56.104,-9.667 56.3,-9.609 56.475,-9.515C56.502,-9.501 56.528,-9.486 56.555,-9.471C56.582,-9.454 56.609,-9.437 56.635,-9.418C56.829,-9.291 57.003,-9.102 57.113,-8.825C57.115,-8.821 57.118,-8.816 57.119,-8.812C57.143,-8.751 57.164,-8.689 57.18,-8.618C57.205,-8.52 57.221,-8.418 57.226,-8.313L57.226,11.275C57.226,11.769 57.63,12.173 58.124,12.173L73.256,12.173C73.75,12.173 74.154,11.769 74.154,11.275L74.154,-40.823C74.154,-45.761 70.113,-49.801 65.176,-49.801" style="fill:white;fill-rule:nonzero;"/>
        </g>
    </g>
</svg>
